<svg width="22" height="22" viewBox="0 0 22 22" fill="none" xmlns="http://www.w3.org/2000/svg">
<g id="rotate-solid 1">
<path id="Vector" d="M6.14023 6.14042C8.81289 3.46776 13.1313 3.45487 15.8211 6.09745L14.0508 7.86347C13.7543 8.15995 13.6684 8.60253 13.8273 8.98925C13.9863 9.37597 14.3645 9.62519 14.7812 9.62519H19.916H20.2812C20.8527 9.62519 21.3125 9.16542 21.3125 8.59394V3.09394C21.3125 2.67714 21.0633 2.29901 20.6766 2.14003C20.2898 1.98105 19.8473 2.06698 19.5508 2.36347L17.7633 4.15097C13.9992 0.43417 7.93633 0.447061 4.19375 4.19394C3.14531 5.24237 2.38906 6.47558 1.925 7.79472C1.67148 8.51229 2.04961 9.29433 2.76289 9.54784C3.47617 9.80136 4.2625 9.42323 4.51602 8.70995C4.84687 7.77323 5.38398 6.89237 6.14023 6.14042ZM0.6875 13.4064V13.733V13.7631V18.9064C0.6875 19.3232 0.936719 19.7014 1.32344 19.8603C1.71016 20.0193 2.15273 19.9334 2.44922 19.6369L4.23672 17.8494C8.00078 21.5662 14.0637 21.5533 17.8062 17.8064C18.8547 16.758 19.6152 15.5248 20.0793 14.21C20.3328 13.4924 19.9547 12.7103 19.2414 12.4568C18.5281 12.2033 17.7418 12.5814 17.4883 13.2947C17.1574 14.2314 16.6203 15.1123 15.8641 15.8642C13.1914 18.5369 8.87305 18.5498 6.1832 15.9072L7.94922 14.1369C8.2457 13.8404 8.33164 13.3978 8.17266 13.0111C8.01367 12.6244 7.63555 12.3752 7.21875 12.3752H2.07969H2.04961H1.71875C1.14727 12.3752 0.6875 12.835 0.6875 13.4064Z" fill="#0086FF"/>
</g>
</svg>
